{
  "dvd_path": "/Volumes/Extreme SSD/VIDEOTECA/_FILM/DVD-Il-Codice-Da-Vinci/VIDEO_TS/",
  "selected_title": 01,
  "dvd_structure": [
  "/Volumes/Extreme SSD/VIDEOTECA/_FILM/DVD-Il-Codice-Da-Vinci/VIDEO_TS//._VTS_01_1.VOB",
  "/Volumes/Extreme SSD/VIDEOTECA/_FILM/DVD-Il-Codice-Da-Vinci/VIDEO_TS//VIDEO_TS.BUP",
  "/Volumes/Extreme SSD/VIDEOTECA/_FILM/DVD-Il-Codice-Da-Vinci/VIDEO_TS//VIDEO_TS.IFO",
  "/Volumes/Extreme SSD/VIDEOTECA/_FILM/DVD-Il-Codice-Da-Vinci/VIDEO_TS//VIDEO_TS.VOB",
  "/Volumes/Extreme SSD/VIDEOTECA/_FILM/DVD-Il-Codice-Da-Vinci/VIDEO_TS//VTS_01_0.BUP",
  "/Volumes/Extreme SSD/VIDEOTECA/_FILM/DVD-Il-Codice-Da-Vinci/VIDEO_TS//VTS_01_0.IFO",
  "/Volumes/Extreme SSD/VIDEOTECA/_FILM/DVD-Il-Codice-Da-Vinci/VIDEO_TS//VTS_01_1.VOB",
  "/Volumes/Extreme SSD/VIDEOTECA/_FILM/DVD-Il-Codice-Da-Vinci/VIDEO_TS//VTS_01_2.VOB",
  "/Volumes/Extreme SSD/VIDEOTECA/_FILM/DVD-Il-Codice-Da-Vinci/VIDEO_TS//VTS_01_3.VOB",
  "/Volumes/Extreme SSD/VIDEOTECA/_FILM/DVD-Il-Codice-Da-Vinci/VIDEO_TS//VTS_01_4.VOB",
  "/Volumes/Extreme SSD/VIDEOTECA/_FILM/DVD-Il-Codice-Da-Vinci/VIDEO_TS//VTS_02_0.BUP",
  "/Volumes/Extreme SSD/VIDEOTECA/_FILM/DVD-Il-Codice-Da-Vinci/VIDEO_TS//VTS_02_0.IFO",
  "/Volumes/Extreme SSD/VIDEOTECA/_FILM/DVD-Il-Codice-Da-Vinci/VIDEO_TS//VTS_02_0.VOB",
  "/Volumes/Extreme SSD/VIDEOTECA/_FILM/DVD-Il-Codice-Da-Vinci/VIDEO_TS//VTS_02_1.VOB",
  "/Volumes/Extreme SSD/VIDEOTECA/_FILM/DVD-Il-Codice-Da-Vinci/VIDEO_TS//VTS_03_0.BUP",
  "/Volumes/Extreme SSD/VIDEOTECA/_FILM/DVD-Il-Codice-Da-Vinci/VIDEO_TS//VTS_03_0.IFO",
  "/Volumes/Extreme SSD/VIDEOTECA/_FILM/DVD-Il-Codice-Da-Vinci/VIDEO_TS//VTS_03_0.VOB",
  "/Volumes/Extreme SSD/VIDEOTECA/_FILM/DVD-Il-Codice-Da-Vinci/VIDEO_TS//VTS_03_1.VOB",
  "/Volumes/Extreme SSD/VIDEOTECA/_FILM/DVD-Il-Codice-Da-Vinci/VIDEO_TS//VTS_04_0.BUP",
  "/Volumes/Extreme SSD/VIDEOTECA/_FILM/DVD-Il-Codice-Da-Vinci/VIDEO_TS//VTS_04_0.IFO",
  "/Volumes/Extreme SSD/VIDEOTECA/_FILM/DVD-Il-Codice-Da-Vinci/VIDEO_TS//VTS_04_0.VOB",
  "/Volumes/Extreme SSD/VIDEOTECA/_FILM/DVD-Il-Codice-Da-Vinci/VIDEO_TS//VTS_04_1.VOB",
  "/Volumes/Extreme SSD/VIDEOTECA/_FILM/DVD-Il-Codice-Da-Vinci/VIDEO_TS//VTS_05_0.BUP",
  "/Volumes/Extreme SSD/VIDEOTECA/_FILM/DVD-Il-Codice-Da-Vinci/VIDEO_TS//VTS_05_0.IFO",
  "/Volumes/Extreme SSD/VIDEOTECA/_FILM/DVD-Il-Codice-Da-Vinci/VIDEO_TS//VTS_05_0.VOB",
  "/Volumes/Extreme SSD/VIDEOTECA/_FILM/DVD-Il-Codice-Da-Vinci/VIDEO_TS//VTS_05_1.VOB",
  "/Volumes/Extreme SSD/VIDEOTECA/_FILM/DVD-Il-Codice-Da-Vinci/VIDEO_TS//VTS_06_0.BUP",
  "/Volumes/Extreme SSD/VIDEOTECA/_FILM/DVD-Il-Codice-Da-Vinci/VIDEO_TS//VTS_06_0.IFO",
  "/Volumes/Extreme SSD/VIDEOTECA/_FILM/DVD-Il-Codice-Da-Vinci/VIDEO_TS//VTS_06_0.VOB",
  "/Volumes/Extreme SSD/VIDEOTECA/_FILM/DVD-Il-Codice-Da-Vinci/VIDEO_TS//VTS_06_1.VOB",
  "/Volumes/Extreme SSD/VIDEOTECA/_FILM/DVD-Il-Codice-Da-Vinci/VIDEO_TS//VTS_07_0.BUP",
  "/Volumes/Extreme SSD/VIDEOTECA/_FILM/DVD-Il-Codice-Da-Vinci/VIDEO_TS//VTS_07_0.IFO",
  "/Volumes/Extreme SSD/VIDEOTECA/_FILM/DVD-Il-Codice-Da-Vinci/VIDEO_TS//VTS_07_0.VOB",
  "/Volumes/Extreme SSD/VIDEOTECA/_FILM/DVD-Il-Codice-Da-Vinci/VIDEO_TS//VTS_07_1.VOB",
  "/Volumes/Extreme SSD/VIDEOTECA/_FILM/DVD-Il-Codice-Da-Vinci/VIDEO_TS//VTS_08_0.BUP",
  "/Volumes/Extreme SSD/VIDEOTECA/_FILM/DVD-Il-Codice-Da-Vinci/VIDEO_TS//VTS_08_0.IFO",
  "/Volumes/Extreme SSD/VIDEOTECA/_FILM/DVD-Il-Codice-Da-Vinci/VIDEO_TS//VTS_08_0.VOB",
  "/Volumes/Extreme SSD/VIDEOTECA/_FILM/DVD-Il-Codice-Da-Vinci/VIDEO_TS//VTS_08_1.VOB",
  "/Volumes/Extreme SSD/VIDEOTECA/_FILM/DVD-Il-Codice-Da-Vinci/VIDEO_TS//VTS_09_0.BUP",
  "/Volumes/Extreme SSD/VIDEOTECA/_FILM/DVD-Il-Codice-Da-Vinci/VIDEO_TS//VTS_09_0.IFO",
  "/Volumes/Extreme SSD/VIDEOTECA/_FILM/DVD-Il-Codice-Da-Vinci/VIDEO_TS//VTS_09_0.VOB",
  "/Volumes/Extreme SSD/VIDEOTECA/_FILM/DVD-Il-Codice-Da-Vinci/VIDEO_TS//VTS_09_1.VOB",
  "/Volumes/Extreme SSD/VIDEOTECA/_FILM/DVD-Il-Codice-Da-Vinci/VIDEO_TS//VTS_10_0.BUP",
  "/Volumes/Extreme SSD/VIDEOTECA/_FILM/DVD-Il-Codice-Da-Vinci/VIDEO_TS//VTS_10_0.IFO",
  "/Volumes/Extreme SSD/VIDEOTECA/_FILM/DVD-Il-Codice-Da-Vinci/VIDEO_TS//VTS_10_0.VOB",
  "/Volumes/Extreme SSD/VIDEOTECA/_FILM/DVD-Il-Codice-Da-Vinci/VIDEO_TS//VTS_10_1.VOB",
  "/Volumes/Extreme SSD/VIDEOTECA/_FILM/DVD-Il-Codice-Da-Vinci/VIDEO_TS//VTS_11_0.BUP",
  "/Volumes/Extreme SSD/VIDEOTECA/_FILM/DVD-Il-Codice-Da-Vinci/VIDEO_TS//VTS_11_0.IFO",
  "/Volumes/Extreme SSD/VIDEOTECA/_FILM/DVD-Il-Codice-Da-Vinci/VIDEO_TS//VTS_11_0.VOB",
  "/Volumes/Extreme SSD/VIDEOTECA/_FILM/DVD-Il-Codice-Da-Vinci/VIDEO_TS//VTS_11_1.VOB",
  "/Volumes/Extreme SSD/VIDEOTECA/_FILM/DVD-Il-Codice-Da-Vinci/VIDEO_TS//VTS_12_0.BUP",
  "/Volumes/Extreme SSD/VIDEOTECA/_FILM/DVD-Il-Codice-Da-Vinci/VIDEO_TS//VTS_12_0.IFO",
  "/Volumes/Extreme SSD/VIDEOTECA/_FILM/DVD-Il-Codice-Da-Vinci/VIDEO_TS//VTS_12_0.VOB",
  "/Volumes/Extreme SSD/VIDEOTECA/_FILM/DVD-Il-Codice-Da-Vinci/VIDEO_TS//VTS_12_1.VOB",
  "/Volumes/Extreme SSD/VIDEOTECA/_FILM/DVD-Il-Codice-Da-Vinci/VIDEO_TS//VTS_13_0.BUP",
  "/Volumes/Extreme SSD/VIDEOTECA/_FILM/DVD-Il-Codice-Da-Vinci/VIDEO_TS//VTS_13_0.IFO",
  "/Volumes/Extreme SSD/VIDEOTECA/_FILM/DVD-Il-Codice-Da-Vinci/VIDEO_TS//VTS_13_0.VOB",
  "/Volumes/Extreme SSD/VIDEOTECA/_FILM/DVD-Il-Codice-Da-Vinci/VIDEO_TS//VTS_13_1.VOB",
  "/Volumes/Extreme SSD/VIDEOTECA/_FILM/DVD-Il-Codice-Da-Vinci/VIDEO_TS//VTS_14_0.BUP",
  "/Volumes/Extreme SSD/VIDEOTECA/_FILM/DVD-Il-Codice-Da-Vinci/VIDEO_TS//VTS_14_0.IFO",
  "/Volumes/Extreme SSD/VIDEOTECA/_FILM/DVD-Il-Codice-Da-Vinci/VIDEO_TS//VTS_14_0.VOB",
  "/Volumes/Extreme SSD/VIDEOTECA/_FILM/DVD-Il-Codice-Da-Vinci/VIDEO_TS//VTS_14_1.VOB",
  "/Volumes/Extreme SSD/VIDEOTECA/_FILM/DVD-Il-Codice-Da-Vinci/VIDEO_TS//VTS_15_0.BUP",
  "/Volumes/Extreme SSD/VIDEOTECA/_FILM/DVD-Il-Codice-Da-Vinci/VIDEO_TS//VTS_15_0.IFO",
  "/Volumes/Extreme SSD/VIDEOTECA/_FILM/DVD-Il-Codice-Da-Vinci/VIDEO_TS//VTS_15_0.VOB",
  "/Volumes/Extreme SSD/VIDEOTECA/_FILM/DVD-Il-Codice-Da-Vinci/VIDEO_TS//VTS_15_1.VOB",
  "/Volumes/Extreme SSD/VIDEOTECA/_FILM/DVD-Il-Codice-Da-Vinci/VIDEO_TS//VTS_16_0.BUP",
  "/Volumes/Extreme SSD/VIDEOTECA/_FILM/DVD-Il-Codice-Da-Vinci/VIDEO_TS//VTS_16_0.IFO",
  "/Volumes/Extreme SSD/VIDEOTECA/_FILM/DVD-Il-Codice-Da-Vinci/VIDEO_TS//VTS_16_0.VOB",
  "/Volumes/Extreme SSD/VIDEOTECA/_FILM/DVD-Il-Codice-Da-Vinci/VIDEO_TS//VTS_16_1.VOB"
],
  "available_titles": [
  "Title 01: Size=1,0G",
  "Title 02: Size=47M",
  "Title 03: Size=34M",
  "Title 04: Size=46M",
  "Title 05: Size=42M",
  "Title 06: Size=30M",
  "Title 07: Size=53M",
  "Title 08: Size=61M",
  "Title 09: Size=6,5M",
  "Title 10: Size=7,0M",
  "Title 11: Size=24M",
  "Title 12: Size=4,7M",
  "Title 13: Size=4,8M",
  "Title 14: Size=16M",
  "Title 15: Size=410K",
  "Title 16: Size=17M"
],
  "stream_info": {
    "streams": [
        {
            "index": 0,
            "codec_name": "dvd_nav_packet",
            "codec_long_name": "DVD Nav packet",
            "codec_type": "data",
            "codec_tag_string": "[0][0][0][0]",
            "codec_tag": "0x0000",
            "id": "0x1bf",
            "r_frame_rate": "0/0",
            "avg_frame_rate": "0/0",
            "time_base": "1/90000",
            "start_pts": 25200,
            "start_time": "0.280000",
            "disposition": {
                "default": 0,
                "dub": 0,
                "original": 0,
                "comment": 0,
                "lyrics": 0,
                "karaoke": 0,
                "forced": 0,
                "hearing_impaired": 0,
                "visual_impaired": 0,
                "clean_effects": 0,
                "attached_pic": 0,
                "timed_thumbnails": 0,
                "non_diegetic": 0,
                "captions": 0,
                "descriptions": 0,
                "metadata": 0,
                "dependent": 0,
                "still_image": 0,
                "multilayer": 0
            }
        },
        {
            "index": 1,
            "codec_name": "mpeg2video",
            "codec_long_name": "MPEG-2 video",
            "profile": "Main",
            "codec_type": "video",
            "codec_tag_string": "[0][0][0][0]",
            "codec_tag": "0x0000",
            "width": 720,
            "height": 576,
            "coded_width": 0,
            "coded_height": 0,
            "closed_captions": 0,
            "film_grain": 0,
            "has_b_frames": 1,
            "sample_aspect_ratio": "64:45",
            "display_aspect_ratio": "16:9",
            "pix_fmt": "yuv420p",
            "level": 8,
            "color_range": "tv",
            "chroma_location": "left",
            "field_order": "tt",
            "refs": 1,
            "id": "0x1e0",
            "r_frame_rate": "25/1",
            "avg_frame_rate": "25/1",
            "time_base": "1/90000",
            "start_pts": 25200,
            "start_time": "0.280000",
            "duration_ts": 222210000,
            "duration": "2469.000000",
            "extradata_size": 150,
            "disposition": {
                "default": 0,
                "dub": 0,
                "original": 0,
                "comment": 0,
                "lyrics": 0,
                "karaoke": 0,
                "forced": 0,
                "hearing_impaired": 0,
                "visual_impaired": 0,
                "clean_effects": 0,
                "attached_pic": 0,
                "timed_thumbnails": 0,
                "non_diegetic": 0,
                "captions": 0,
                "descriptions": 0,
                "metadata": 0,
                "dependent": 0,
                "still_image": 0,
                "multilayer": 0
            },
            "side_data_list": [
                {
                    "side_data_type": "CPB properties",
                    "max_bitrate": 9800000,
                    "min_bitrate": 0,
                    "avg_bitrate": 0,
                    "buffer_size": 1835008,
                    "vbv_delay": -1
                }
            ]
        },
        {
            "index": 2,
            "codec_name": "ac3",
            "codec_long_name": "ATSC A/52A (AC-3)",
            "codec_type": "audio",
            "codec_tag_string": "[0][0][0][0]",
            "codec_tag": "0x0000",
            "sample_fmt": "fltp",
            "sample_rate": "48000",
            "channels": 6,
            "channel_layout": "5.1(side)",
            "bits_per_sample": 0,
            "initial_padding": 0,
            "id": "0x80",
            "r_frame_rate": "0/0",
            "avg_frame_rate": "0/0",
            "time_base": "1/90000",
            "start_pts": 25200,
            "start_time": "0.280000",
            "duration_ts": 222206400,
            "duration": "2468.960000",
            "bit_rate": "448000",
            "disposition": {
                "default": 0,
                "dub": 0,
                "original": 0,
                "comment": 0,
                "lyrics": 0,
                "karaoke": 0,
                "forced": 0,
                "hearing_impaired": 0,
                "visual_impaired": 0,
                "clean_effects": 0,
                "attached_pic": 0,
                "timed_thumbnails": 0,
                "non_diegetic": 0,
                "captions": 0,
                "descriptions": 0,
                "metadata": 0,
                "dependent": 0,
                "still_image": 0,
                "multilayer": 0
            }
        },
        {
            "index": 3,
            "codec_name": "ac3",
            "codec_long_name": "ATSC A/52A (AC-3)",
            "codec_type": "audio",
            "codec_tag_string": "[0][0][0][0]",
            "codec_tag": "0x0000",
            "sample_fmt": "fltp",
            "sample_rate": "48000",
            "channels": 6,
            "channel_layout": "5.1(side)",
            "bits_per_sample": 0,
            "initial_padding": 0,
            "id": "0x81",
            "r_frame_rate": "0/0",
            "avg_frame_rate": "0/0",
            "time_base": "1/90000",
            "start_pts": 25200,
            "start_time": "0.280000",
            "duration_ts": 222203520,
            "duration": "2468.928000",
            "bit_rate": "448000",
            "disposition": {
                "default": 0,
                "dub": 0,
                "original": 0,
                "comment": 0,
                "lyrics": 0,
                "karaoke": 0,
                "forced": 0,
                "hearing_impaired": 0,
                "visual_impaired": 0,
                "clean_effects": 0,
                "attached_pic": 0,
                "timed_thumbnails": 0,
                "non_diegetic": 0,
                "captions": 0,
                "descriptions": 0,
                "metadata": 0,
                "dependent": 0,
                "still_image": 0,
                "multilayer": 0
            }
        }
    ]
},
  "extraction_date": "2025-07-12T21:58:04Z",
  "extraction_tool": "dvd-to-mkv.sh"
}
